<svg width="12" height="15" viewBox="0 0 12 15" fill="none" xmlns="http://www.w3.org/2000/svg">
<path d="M11.1598 5.0541L7.53317 1.0541C7.47084 0.985043 7.39475 0.929791 7.30978 0.891901C7.22482 0.854012 7.13287 0.834324 7.03984 0.834104H2.37317C2.15167 0.831462 1.93182 0.872478 1.72617 0.954809C1.52052 1.03714 1.33311 1.15917 1.17463 1.31394C1.01614 1.46871 0.8897 1.65318 0.802516 1.85682C0.715332 2.06045 0.669115 2.27927 0.666504 2.50077V12.5008C0.669115 12.7223 0.715332 12.9411 0.802516 13.1447C0.8897 13.3484 1.01614 13.5328 1.17463 13.6876C1.33311 13.8424 1.52052 13.9644 1.72617 14.0467C1.93182 14.1291 2.15167 14.1701 2.37317 14.1674H9.6265C9.84801 14.1701 10.0679 14.1291 10.2735 14.0467C10.4792 13.9644 10.6666 13.8424 10.825 13.6876C10.9835 13.5328 11.11 13.3484 11.1972 13.1447C11.2843 12.9411 11.3306 12.7223 11.3332 12.5008V5.50077C11.3327 5.33555 11.271 5.17637 11.1598 5.0541ZM9.7665 5.50077H7.13984C7.0024 5.48724 6.87578 5.42026 6.78724 5.31427C6.69871 5.20828 6.65535 5.07175 6.6665 4.9341V2.16744H6.73984L9.7665 5.50077ZM9.6265 12.8341H2.37317C2.32675 12.8368 2.28026 12.8303 2.23635 12.815C2.19245 12.7997 2.15199 12.7759 2.11731 12.7449C2.08263 12.714 2.0544 12.6765 2.03424 12.6346C2.01408 12.5927 2.00239 12.5472 1.99984 12.5008V2.50077C2.00239 2.45435 2.01408 2.40888 2.03424 2.36698C2.0544 2.32508 2.08263 2.28758 2.11731 2.25661C2.15199 2.22564 2.19245 2.20183 2.23635 2.18652C2.28026 2.17122 2.32675 2.16474 2.37317 2.16744H5.33317V4.9341C5.32241 5.42519 5.50634 5.90059 5.84482 6.25655C6.18329 6.61251 6.64884 6.82014 7.13984 6.8341H9.99984V12.5008C9.99728 12.5472 9.98559 12.5927 9.96543 12.6346C9.94528 12.6765 9.91705 12.714 9.88236 12.7449C9.84768 12.7759 9.80723 12.7997 9.76332 12.815C9.71942 12.8303 9.67292 12.8368 9.6265 12.8341Z" fill="#9E9E9E"/>
</svg>
