<svg width="14" height="15" viewBox="0 0 14 15" fill="none" xmlns="http://www.w3.org/2000/svg">
<path d="M13.6668 7.50065C13.6668 6.62517 13.4944 5.75827 13.1594 4.94943C12.8243 4.14059 12.3333 3.40566 11.7142 2.78661C11.0951 2.16755 10.3602 1.67649 9.55138 1.34145C8.74255 1.00642 7.87564 0.833984 7.00016 0.833984C5.23205 0.833984 3.53636 1.53636 2.28612 2.78661C1.03587 4.03685 0.333496 5.73254 0.333496 7.50065C0.333496 9.26876 1.03587 10.9645 2.28612 12.2147C3.53636 13.4649 5.23205 14.1673 7.00016 14.1673C8.76827 14.1673 10.464 13.4649 11.7142 12.2147C12.9644 10.9645 13.6668 9.26876 13.6668 7.50065ZM12.2868 6.83398H10.3335C10.2235 5.26608 9.68634 3.75822 8.78016 2.47398C9.71114 2.80463 10.532 3.38736 11.1512 4.15721C11.7703 4.92706 12.1635 5.85376 12.2868 6.83398ZM5.0535 8.16732H9.00016C8.82955 9.81437 8.12753 11.3612 7.00016 12.574C5.87354 11.3662 5.18762 9.81351 5.0535 8.16732ZM5.0535 6.83398C5.20875 5.1952 5.89189 3.65113 7.00016 2.43398C8.13664 3.63807 8.84025 5.18601 9.00016 6.83398H5.0535ZM5.2935 2.45398C4.38253 3.74533 3.8367 5.25846 3.7135 6.83398H1.7135C1.83943 5.84165 2.2419 4.90473 2.87494 4.13023C3.50798 3.35573 4.34607 2.77487 5.2935 2.45398ZM1.7135 8.16732H3.7135C3.82329 9.7415 4.36542 11.2548 5.28016 12.5407C4.33615 12.2182 3.50149 11.6374 2.87101 10.8644C2.24053 10.0913 1.83951 9.1569 1.7135 8.16732ZM8.74683 12.534C9.6591 11.2478 10.2073 9.73915 10.3335 8.16732H12.3002C12.1741 9.15415 11.7745 10.086 11.1466 10.8577C10.5187 11.6293 9.68744 12.21 8.74683 12.534Z" fill="#9E9E9E"/>
</svg>
