<svg width="16" height="17" viewBox="0 0 16 17" fill="none" xmlns="http://www.w3.org/2000/svg">
<path d="M6 2.5H3.33333C2.97971 2.5 2.64057 2.64048 2.39052 2.89052C2.14048 3.14057 2 3.47971 2 3.83333V6.5C2 6.85362 2.14048 7.19276 2.39052 7.44281C2.64057 7.69286 2.97971 7.83333 3.33333 7.83333H6C6.35362 7.83333 6.69276 7.69286 6.94281 7.44281C7.19286 7.19276 7.33333 6.85362 7.33333 6.5V3.83333C7.33333 3.47971 7.19286 3.14057 6.94281 2.89052C6.69276 2.64048 6.35362 2.5 6 2.5ZM3.33333 6.5V3.83333H6V6.5H3.33333Z" fill="#9E9E9E"/>
<path d="M12.6665 2.5H9.99984C9.64622 2.5 9.30708 2.64048 9.05703 2.89052C8.80698 3.14057 8.6665 3.47971 8.6665 3.83333V6.5C8.6665 6.85362 8.80698 7.19276 9.05703 7.44281C9.30708 7.69286 9.64622 7.83333 9.99984 7.83333H12.6665C13.0201 7.83333 13.3593 7.69286 13.6093 7.44281C13.8594 7.19276 13.9998 6.85362 13.9998 6.5V3.83333C13.9998 3.47971 13.8594 3.14057 13.6093 2.89052C13.3593 2.64048 13.0201 2.5 12.6665 2.5ZM9.99984 6.5V3.83333H12.6665V6.5H9.99984Z" fill="#9E9E9E"/>
<path d="M6 9.16602H3.33333C2.97971 9.16602 2.64057 9.30649 2.39052 9.55654C2.14048 9.80659 2 10.1457 2 10.4993V13.166C2 13.5196 2.14048 13.8588 2.39052 14.1088C2.64057 14.3589 2.97971 14.4993 3.33333 14.4993H6C6.35362 14.4993 6.69276 14.3589 6.94281 14.1088C7.19286 13.8588 7.33333 13.5196 7.33333 13.166V10.4993C7.33333 10.1457 7.19286 9.80659 6.94281 9.55654C6.69276 9.30649 6.35362 9.16602 6 9.16602ZM3.33333 13.166V10.4993H6V13.166H3.33333Z" fill="#9E9E9E"/>
<path d="M12.6665 9.16602H9.99984C9.64622 9.16602 9.30708 9.30649 9.05703 9.55654C8.80698 9.80659 8.6665 10.1457 8.6665 10.4993V13.166C8.6665 13.5196 8.80698 13.8588 9.05703 14.1088C9.30708 14.3589 9.64622 14.4993 9.99984 14.4993H12.6665C13.0201 14.4993 13.3593 14.3589 13.6093 14.1088C13.8594 13.8588 13.9998 13.5196 13.9998 13.166V10.4993C13.9998 10.1457 13.8594 9.80659 13.6093 9.55654C13.3593 9.30649 13.0201 9.16602 12.6665 9.16602ZM9.99984 13.166V10.4993H12.6665V13.166H9.99984Z" fill="#9E9E9E"/>
</svg>
