<svg width="12" height="15" viewBox="0 0 12 15" fill="none" xmlns="http://www.w3.org/2000/svg">
<path d="M11.6134 6.28647L6.47341 1.03314C6.41144 0.970651 6.3377 0.921055 6.25646 0.887209C6.17522 0.853363 6.08809 0.835938 6.00008 0.835938C5.91207 0.835937 5.82493 0.853363 5.74369 0.887209C5.66245 0.921055 5.58872 0.970651 5.52674 1.03314L0.386744 6.29314C0.262368 6.41852 0.16414 6.56735 0.0977622 6.73101C0.0313846 6.89466 -0.00181985 7.06988 7.69095e-05 7.24647V12.8331C-0.00043964 13.1744 0.129926 13.5029 0.364327 13.7509C0.598728 13.999 0.919317 14.1477 1.26008 14.1665H10.7401C11.0808 14.1477 11.4014 13.999 11.6358 13.7509C11.8702 13.5029 12.0006 13.1744 12.0001 12.8331V7.24647C12.0006 6.88843 11.862 6.54419 11.6134 6.28647ZM4.66674 12.8331V8.83314H7.33341V12.8331H4.66674ZM10.6667 12.8331H8.66674V8.16647C8.66674 7.98966 8.59651 7.82009 8.47148 7.69507C8.34646 7.57004 8.17689 7.4998 8.00008 7.4998H4.00008C3.82327 7.4998 3.6537 7.57004 3.52867 7.69507C3.40365 7.82009 3.33341 7.98966 3.33341 8.16647V12.8331H1.33341V7.2198L6.00008 2.45314L10.6667 7.24647V12.8331Z" fill="#9E9E9E"/>
</svg>
