<svg width="16" height="17" viewBox="0 0 16 17" fill="none" xmlns="http://www.w3.org/2000/svg">
<path d="M12.6667 14.334L11.1267 8.33398C11.6961 7.62556 12.0044 6.74285 12 5.83398C12 4.77312 11.5786 3.7557 10.8285 3.00556C10.0783 2.25541 9.06089 1.83398 8.00003 1.83398C6.93916 1.83398 5.92174 2.25541 5.1716 3.00556C4.42145 3.7557 4.00002 4.77312 4.00002 5.83398C3.9982 6.74986 4.3139 7.63805 4.89336 8.34732L3.33336 14.334C3.30018 14.4619 3.30578 14.5969 3.34946 14.7216C3.39314 14.8464 3.47293 14.9554 3.57868 15.0347C3.68443 15.114 3.81137 15.1601 3.94337 15.1671C4.07538 15.1741 4.20648 15.1417 4.32002 15.074L7.87336 12.9873L11.66 15.0807C11.7623 15.1424 11.8806 15.1725 12 15.1673C12.1035 15.1706 12.2064 15.1498 12.3005 15.1064C12.3945 15.063 12.4772 14.9983 12.5419 14.9175C12.6066 14.8366 12.6515 14.7417 12.6732 14.6405C12.6949 14.5392 12.6926 14.4343 12.6667 14.334ZM8.00003 3.16732C8.52744 3.16732 9.04301 3.32371 9.48155 3.61673C9.92008 3.90975 10.2619 4.32623 10.4637 4.8135C10.6655 5.30077 10.7183 5.83694 10.6155 6.35423C10.5126 6.87151 10.2586 7.34666 9.88564 7.7196C9.5127 8.09254 9.03755 8.34652 8.52027 8.44941C8.00298 8.55231 7.46681 8.4995 6.97954 8.29766C6.49227 8.09583 6.07579 7.75404 5.78277 7.31551C5.48976 6.87697 5.33336 6.3614 5.33336 5.83398C5.33336 5.12674 5.61431 4.44846 6.11441 3.94837C6.6145 3.44827 7.29278 3.16732 8.00003 3.16732ZM8.20669 11.6407C8.10535 11.5821 7.99038 11.5513 7.87336 11.5513C7.75633 11.5513 7.64137 11.5821 7.54003 11.6407L5.04002 13.1073L6.00003 9.30732C6.60043 9.65241 7.28084 9.83402 7.97336 9.83402C8.66587 9.83402 9.34628 9.65241 9.94669 9.30732L10.9667 13.1673L8.20669 11.6407Z" fill="#9E9E9E"/>
</svg>
