<svg width="12" height="12" viewBox="0 0 12 12" fill="none" xmlns="http://www.w3.org/2000/svg">
<path d="M11.7469 0.813436C11.6694 0.750784 11.5789 0.706285 11.482 0.683211C11.3851 0.660138 11.2842 0.659075 11.1869 0.680103L6.0002 1.84677L0.813534 0.666769C0.714618 0.644429 0.611908 0.644949 0.513222 0.66829C0.414537 0.691631 0.322476 0.737177 0.244048 0.801463C0.16562 0.865748 0.10289 0.947078 0.0606345 1.03926C0.0183786 1.13145 -0.00229017 1.23206 0.000201254 1.33344V9.46677C-0.00356517 9.62088 0.0461911 9.77153 0.141001 9.89308C0.23581 10.0146 0.369814 10.0996 0.520201 10.1334L5.85353 11.3334H6.14687L11.4802 10.1334C11.6306 10.0996 11.7646 10.0146 11.8594 9.89308C11.9542 9.77153 12.004 9.62088 12.0002 9.46677V1.33344C11.9997 1.2333 11.9767 1.13455 11.9329 1.04453C11.889 0.954507 11.8254 0.87552 11.7469 0.813436ZM1.33353 2.16677L5.33354 3.06677V9.83344L1.33353 8.93344V2.16677ZM10.6669 8.93344L6.66687 9.83344V3.06677L10.6669 2.16677V8.93344Z" fill="#9E9E9E"/>
</svg>
