<svg width="16" height="17" viewBox="0 0 16 17" fill="none" xmlns="http://www.w3.org/2000/svg">
<path d="M6.00016 7.83333C6.52758 7.83333 7.04315 7.67694 7.48168 7.38392C7.92021 7.0909 8.26201 6.67443 8.46384 6.18716C8.66568 5.69989 8.71848 5.16371 8.61559 4.64643C8.5127 4.12914 8.25872 3.65399 7.88578 3.28105C7.51284 2.90811 7.03769 2.65413 6.5204 2.55124C6.00312 2.44835 5.46694 2.50116 4.97967 2.70299C4.4924 2.90482 4.07593 3.24662 3.78291 3.68515C3.48989 4.12368 3.3335 4.63925 3.3335 5.16667C3.3335 5.87391 3.61445 6.55219 4.11454 7.05229C4.61464 7.55238 5.29292 7.83333 6.00016 7.83333ZM6.00016 3.83333C6.26387 3.83333 6.52166 3.91153 6.74092 4.05804C6.96019 4.20455 7.13109 4.41279 7.232 4.65642C7.33292 4.90006 7.35932 5.16815 7.30788 5.42679C7.25643 5.68543 7.12944 5.92301 6.94297 6.10948C6.7565 6.29595 6.51892 6.42293 6.26028 6.47438C6.00164 6.52583 5.73355 6.49942 5.48992 6.39851C5.24628 6.29759 5.03805 6.12669 4.89154 5.90743C4.74503 5.68816 4.66683 5.43038 4.66683 5.16667C4.66683 4.81305 4.80731 4.47391 5.05735 4.22386C5.3074 3.97381 5.64654 3.83333 6.00016 3.83333Z" fill="#9E9E9E"/>
<path d="M11.3335 9.16602C11.7291 9.16602 12.1157 9.04872 12.4446 8.82896C12.7735 8.60919 13.0299 8.29684 13.1813 7.93138C13.3326 7.56593 13.3722 7.1638 13.2951 6.77584C13.2179 6.38787 13.0274 6.03151 12.7477 5.7518C12.468 5.4721 12.1116 5.28162 11.7237 5.20445C11.3357 5.12728 10.9336 5.16688 10.5681 5.31826C10.2027 5.46963 9.89032 5.72598 9.67056 6.05488C9.45079 6.38377 9.3335 6.77045 9.3335 7.16602C9.3335 7.69645 9.54421 8.20516 9.91928 8.58023C10.2944 8.9553 10.8031 9.16602 11.3335 9.16602ZM11.3335 6.49935C11.4654 6.49935 11.5942 6.53845 11.7039 6.6117C11.8135 6.68496 11.899 6.78908 11.9494 6.91089C11.9999 7.03271 12.0131 7.16676 11.9874 7.29608C11.9616 7.4254 11.8981 7.54419 11.8049 7.63742C11.7117 7.73066 11.5929 7.79415 11.4636 7.81987C11.3342 7.8456 11.2002 7.83239 11.0784 7.78194C10.9566 7.73148 10.8524 7.64603 10.7792 7.5364C10.7059 7.42676 10.6668 7.29787 10.6668 7.16602C10.6668 6.98921 10.7371 6.81964 10.8621 6.69461C10.9871 6.56959 11.1567 6.49935 11.3335 6.49935Z" fill="#9E9E9E"/>
<path d="M11.3335 9.83418C10.5947 9.835 9.87713 10.0812 9.2935 10.5342C8.6405 9.88375 7.80953 9.44125 6.90538 9.26247C6.00122 9.08369 5.06438 9.17664 4.21298 9.52961C3.36159 9.88257 2.63377 10.4797 2.12132 11.2458C1.60888 12.0119 1.33474 12.9125 1.3335 13.8342C1.3335 14.011 1.40373 14.1806 1.52876 14.3056C1.65378 14.4306 1.82335 14.5009 2.00016 14.5009C2.17697 14.5009 2.34654 14.4306 2.47157 14.3056C2.59659 14.1806 2.66683 14.011 2.66683 13.8342C2.66683 12.9501 3.01802 12.1023 3.64314 11.4772C4.26826 10.852 5.11611 10.5009 6.00016 10.5009C6.88422 10.5009 7.73206 10.852 8.35718 11.4772C8.98231 12.1023 9.3335 12.9501 9.3335 13.8342C9.3335 14.011 9.40373 14.1806 9.52876 14.3056C9.65378 14.4306 9.82335 14.5009 10.0002 14.5009C10.177 14.5009 10.3465 14.4306 10.4716 14.3056C10.5966 14.1806 10.6668 14.011 10.6668 13.8342C10.6684 13.0531 10.4711 12.2845 10.0935 11.6009C10.3881 11.368 10.7423 11.2229 11.1156 11.182C11.4888 11.141 11.8661 11.206 12.2041 11.3695C12.5422 11.533 12.8274 11.7883 13.0271 12.1063C13.2268 12.4242 13.333 12.792 13.3335 13.1675C13.3335 13.3443 13.4037 13.5139 13.5288 13.6389C13.6538 13.7639 13.8234 13.8342 14.0002 13.8342C14.177 13.8342 14.3465 13.7639 14.4716 13.6389C14.5966 13.5139 14.6668 13.3443 14.6668 13.1675C14.6668 12.2835 14.3156 11.4356 13.6905 10.8105C13.0654 10.1854 12.2176 9.83418 11.3335 9.83418Z" fill="#9E9E9E"/>
</svg>
