<svg width="16" height="17" viewBox="0 0 16 17" fill="none" xmlns="http://www.w3.org/2000/svg">
<path d="M5.74002 15.1673C5.41471 15.1654 5.09883 15.0578 4.84002 14.8607L3.46002 13.834C3.14156 13.5857 2.93026 13.2249 2.86951 12.8257C2.80876 12.4264 2.90317 12.0191 3.13336 11.6873C3.25515 11.5075 3.33255 11.3013 3.35921 11.0858C3.38586 10.8702 3.36101 10.6514 3.28669 10.4473L3.24669 10.3407C3.19494 10.1559 3.10036 9.986 2.97063 9.84469C2.84089 9.70337 2.67966 9.59464 2.50002 9.52732H2.39336C2.00394 9.39637 1.6819 9.11709 1.49716 8.75012C1.31243 8.38315 1.27992 7.95812 1.40669 7.56732L1.95336 5.83398C2.00368 5.63316 2.09633 5.4454 2.2251 5.28329C2.35387 5.12117 2.51579 4.98844 2.70002 4.89398C2.87159 4.80559 3.05931 4.75292 3.25182 4.73917C3.44433 4.72541 3.63763 4.75087 3.82002 4.81398C4.01861 4.88082 4.23052 4.89814 4.43733 4.86445C4.64414 4.83076 4.83959 4.74707 5.00669 4.62065L5.09336 4.55398C5.24462 4.43329 5.36687 4.28018 5.4511 4.10596C5.53533 3.93174 5.57938 3.74083 5.58002 3.54732V3.38732C5.57823 2.9794 5.73766 2.5873 6.02359 2.29637C6.30952 2.00545 6.69881 1.83926 7.10669 1.83398H8.80669C9.00514 1.83452 9.20153 1.87425 9.38458 1.95091C9.56763 2.02756 9.73374 2.13962 9.87336 2.28065C10.1669 2.57918 10.3299 2.982 10.3267 3.40065V3.58732C10.3233 3.77115 10.3632 3.95321 10.4431 4.1188C10.523 4.2844 10.6407 4.4289 10.7867 4.54065L10.86 4.59398C11.0096 4.70619 11.1842 4.78055 11.3688 4.81073C11.5533 4.84091 11.7425 4.82601 11.92 4.76732L12.1467 4.69398C12.3387 4.63033 12.5416 4.606 12.7433 4.62245C12.9449 4.6389 13.1412 4.6958 13.3204 4.78974C13.4996 4.88369 13.658 5.01276 13.7862 5.16927C13.9144 5.32577 14.0098 5.50649 14.0667 5.70065L14.5934 7.38065C14.7152 7.76891 14.6819 8.18929 14.5004 8.55351C14.3189 8.91774 14.0034 9.19747 13.62 9.33398L13.4867 9.38065C13.2906 9.44487 13.1132 9.55626 12.9703 9.70505C12.8273 9.85385 12.723 10.0355 12.6667 10.234C12.6136 10.4185 12.601 10.6123 12.6298 10.8022C12.6586 10.992 12.728 11.1734 12.8334 11.334L13.0067 11.5873C13.2366 11.9209 13.3301 12.3299 13.2681 12.7303C13.2061 13.1306 12.9933 13.4921 12.6734 13.7407L11.3334 14.774C11.1715 14.8978 10.9859 14.9872 10.7882 15.0366C10.5905 15.086 10.3848 15.0944 10.1837 15.0613C9.98256 15.0282 9.79036 14.9543 9.61891 14.8441C9.44745 14.7339 9.30036 14.5898 9.18669 14.4207L9.10669 14.3073C8.9975 14.1432 8.84852 14.0095 8.67365 13.9185C8.49878 13.8276 8.30373 13.7825 8.10669 13.7873C7.91867 13.7922 7.73444 13.8412 7.56884 13.9304C7.40324 14.0195 7.26092 14.1464 7.15336 14.3007L7.00002 14.5207C6.88632 14.691 6.73893 14.8363 6.56695 14.9475C6.39496 15.0587 6.20202 15.1335 6.00002 15.1673C5.91356 15.1758 5.82648 15.1758 5.74002 15.1673ZM2.93336 8.24732C3.30982 8.38156 3.64951 8.6023 3.92509 8.89178C4.20067 9.18125 4.40445 9.53138 4.52002 9.91398V9.99398C4.66398 10.3917 4.71125 10.818 4.65792 11.2377C4.6046 11.6573 4.45222 12.0582 4.21336 12.4073C4.17119 12.4539 4.14785 12.5145 4.14785 12.5773C4.14785 12.6401 4.17119 12.7007 4.21336 12.7473L5.64669 13.834C5.66539 13.8487 5.68702 13.8592 5.71012 13.8648C5.73322 13.8705 5.75726 13.8711 5.78062 13.8667C5.80399 13.8623 5.82614 13.8529 5.84558 13.8392C5.86502 13.8255 5.88131 13.8078 5.89336 13.7873L6.04669 13.5673C6.27795 13.2332 6.58679 12.9601 6.94673 12.7714C7.30667 12.5828 7.70698 12.4843 8.11336 12.4843C8.51973 12.4843 8.92004 12.5828 9.27999 12.7714C9.63993 12.9601 9.94876 13.2332 10.18 13.5673L10.26 13.6873C10.2887 13.728 10.3315 13.7565 10.38 13.7673C10.4023 13.7706 10.425 13.7693 10.4468 13.7636C10.4685 13.7579 10.4889 13.7478 10.5067 13.734L11.88 12.694C11.9281 12.6558 11.9597 12.6007 11.9684 12.5399C11.9771 12.4792 11.9622 12.4174 11.9267 12.3673L11.7534 12.114C11.5275 11.7847 11.3785 11.4088 11.3173 11.0142C11.2562 10.6196 11.2844 10.2162 11.4 9.83398C11.5172 9.43223 11.7291 9.06449 12.018 8.7617C12.3069 8.4589 12.6642 8.22991 13.06 8.09398L13.1934 8.04732C13.2489 8.02506 13.2934 7.98172 13.3172 7.92676C13.3409 7.87181 13.3419 7.8097 13.32 7.75398L12.8 6.09398C12.7875 6.06494 12.7693 6.03873 12.7464 6.01696C12.7234 5.99519 12.6963 5.9783 12.6667 5.96732C12.6471 5.95736 12.6254 5.95217 12.6034 5.95217C12.5813 5.95217 12.5597 5.95736 12.54 5.96732L12.3134 6.04065C11.9299 6.1672 11.5215 6.19873 11.1232 6.13254C10.7249 6.06635 10.3486 5.90441 10.0267 5.66065L10 5.60065C9.69114 5.36673 9.44069 5.06439 9.26834 4.71738C9.09599 4.37036 9.00643 3.98811 9.00669 3.60065V3.39398C9.0079 3.32973 8.98398 3.26754 8.94002 3.22065C8.90167 3.18599 8.85172 3.16696 8.80002 3.16732H7.10669C7.07953 3.16901 7.05297 3.17606 7.02854 3.18804C7.00411 3.20003 6.98229 3.21672 6.96433 3.23716C6.94636 3.2576 6.93261 3.28139 6.92387 3.30716C6.91512 3.33292 6.91155 3.36017 6.91336 3.38732V3.55398C6.9134 3.95201 6.82206 4.34473 6.64637 4.70188C6.47068 5.05904 6.21534 5.37109 5.90002 5.61398L5.81336 5.68065C5.47318 5.93966 5.07451 6.111 4.65249 6.1796C4.23047 6.24819 3.79805 6.21192 3.39336 6.07398C3.36308 6.06382 3.3303 6.06382 3.30002 6.07398C3.2624 6.09684 3.23406 6.13226 3.22002 6.17398L2.66669 7.91398C2.6474 7.97325 2.65192 8.03769 2.67929 8.09367C2.70667 8.14966 2.75474 8.19281 2.81336 8.21398L2.93336 8.24732Z" fill="#9E9E9E"/>
<path d="M7.99984 10.8327C7.53835 10.8327 7.08722 10.6958 6.70351 10.4394C6.31979 10.1831 6.02072 9.81864 5.84412 9.39228C5.66751 8.96592 5.62131 8.49676 5.71134 8.04414C5.80137 7.59152 6.0236 7.17576 6.34992 6.84943C6.67625 6.52311 7.09201 6.30088 7.54463 6.21085C7.99725 6.12082 8.46641 6.16703 8.89277 6.34363C9.31913 6.52024 9.68354 6.8193 9.93993 7.20302C10.1963 7.58673 10.3332 8.03786 10.3332 8.49935C10.3332 9.11819 10.0873 9.71168 9.64975 10.1493C9.21217 10.5869 8.61868 10.8327 7.99984 10.8327ZM7.99984 7.49935C7.80206 7.49935 7.60872 7.558 7.44427 7.66788C7.27982 7.77776 7.15165 7.93394 7.07596 8.11667C7.00027 8.29939 6.98047 8.50046 7.01905 8.69444C7.05764 8.88842 7.15288 9.0666 7.29273 9.20646C7.43258 9.34631 7.61077 9.44155 7.80475 9.48014C7.99873 9.51872 8.1998 9.49892 8.38252 9.42323C8.56525 9.34754 8.72143 9.21937 8.83131 9.05492C8.94119 8.89047 8.99984 8.69713 8.99984 8.49935C8.99984 8.23413 8.89448 7.97978 8.70695 7.79224C8.51941 7.60471 8.26506 7.49935 7.99984 7.49935Z" fill="#9E9E9E"/>
</svg>
